<svg width="23" height="26" viewBox="0 0 23 26" fill="none" xmlns="http://www.w3.org/2000/svg">
<path d="M11.2729 13.3545C14.7251 13.3545 17.5229 10.5566 17.5229 7.10449C17.5229 3.65234 14.7251 0.854492 11.2729 0.854492C7.8208 0.854492 5.02295 3.65234 5.02295 7.10449C5.02295 10.5566 7.8208 13.3545 11.2729 13.3545ZM15.6479 14.917H14.8325C13.7485 15.415 12.5425 15.6982 11.2729 15.6982C10.0034 15.6982 8.80225 15.415 7.71338 14.917H6.89795C3.2749 14.917 0.335449 17.8564 0.335449 21.4795V23.5107C0.335449 24.8047 1.38525 25.8545 2.6792 25.8545H19.8667C21.1606 25.8545 22.2104 24.8047 22.2104 23.5107V21.4795C22.2104 17.8564 19.271 14.917 15.6479 14.917Z" fill="black"/>
</svg>
